<svg width="40" height="40" viewBox="0 0 40 40" fill="none" xmlns="http://www.w3.org/2000/svg">
<path d="M15.4596 0.112362C11.4817 0.634735 8.02263 2.28891 5.25539 5.00124C2.8673 7.33851 1.26415 10.158 0.459253 13.4396C0.113345 14.8527 -0.00639127 15.9376 0.000260791 17.5248C0.00691285 20.4045 0.572338 22.7753 1.86949 25.3872C3.16664 27.9856 5.21548 30.3095 7.71666 31.9972C11.056 34.2474 15.2933 35.3323 19.1183 34.9104C23.5087 34.4215 27.0143 32.7673 29.9678 29.7738C33.959 25.722 35.6353 20.4849 34.7839 14.645C34.2916 11.2162 32.3292 7.43896 29.7815 4.99454C27.3735 2.69074 24.4799 1.12362 21.3135 0.413731C19.4975 0.011906 17.1626 -0.115339 15.4596 0.112362ZM19.6571 2.3224C24.4533 3.02559 28.6906 6.12635 30.8858 10.5398C31.551 11.8791 32.0299 13.3927 32.2694 14.8794C32.4357 15.9108 32.4357 18.6767 32.2694 19.6344C31.8237 22.1658 30.919 24.309 29.4024 26.3649C29.1496 26.7132 28.4911 27.4499 27.9456 27.999L26.9544 28.9902L26.9943 29.5059L27.0342 30.0149L26.8413 29.2782C26.6151 28.4009 26.4156 27.912 26.1229 27.5236C26.0032 27.3628 25.9034 27.1954 25.9034 27.1485C25.91 27.1083 26.0763 26.9476 26.2826 26.8003C26.655 26.5324 27.1673 25.9899 27.4467 25.5613C27.5464 25.4206 27.6861 25.3068 27.8259 25.2666C28.1584 25.1728 28.5376 24.7777 28.6241 24.4361C28.7172 24.108 28.6839 23.954 28.4577 23.6125L28.2915 23.3713L28.4378 22.7083C28.5842 22.052 28.5842 22.0386 28.471 21.0073C28.4112 20.438 28.3646 19.8889 28.3646 19.7951C28.3646 19.5607 27.8525 18.5293 27.4467 17.9601C26.7682 16.9957 26.5154 16.768 25.5308 16.2858C24.3867 15.7166 23.9677 15.6228 22.8101 15.6697C21.7991 15.7099 20.9476 15.9041 20.1693 16.2791C19.3843 16.6542 18.493 17.5449 17.6349 18.824C17.3422 19.2526 17.3222 19.3062 17.3222 19.7214C17.3222 20.0429 17.2557 20.3577 17.0827 20.9001C16.7901 21.8176 16.8034 22.0319 17.2225 22.7485C17.3888 23.0298 17.5218 23.2977 17.5218 23.3311C17.5218 23.3713 17.4353 23.4986 17.3222 23.6191C16.9697 24.0009 16.9763 24.5902 17.3422 24.9854C17.5484 25.2064 18.0539 25.414 18.1803 25.3269C18.2136 25.3068 18.187 25.1394 18.1138 24.9586C17.9143 24.4295 17.9675 24.4094 18.2136 24.9251C18.6992 25.9564 19.3577 26.6194 20.4154 27.1418C21.2136 27.5302 21.8988 27.7044 22.8767 27.7512C23.3158 27.7713 23.6151 27.8115 23.5419 27.8383C23.1428 27.9789 21.3068 27.7177 20.462 27.3963L20.0229 27.2289L19.9099 27.3829C19.6638 27.7044 19.1781 28.7692 19.0584 29.2446C18.9919 29.5193 18.8987 30.0751 18.8522 30.4769C18.7191 31.7293 18.6659 31.8431 18.5263 31.1064C18.2935 29.8876 16.7302 24.1147 16.5373 23.7665C16.5107 23.7129 16.0916 23.5723 15.606 23.4517C15.1204 23.3245 14.5882 23.1771 14.4219 23.1101C14.2623 23.0499 14.1093 23.0164 14.0893 23.0365C14.0694 23.0566 14.1824 23.2508 14.3421 23.4651C14.5018 23.6794 14.7279 24.0075 14.8476 24.1884C15.1603 24.6907 15.8854 26.2578 16.0983 26.8806C16.3311 27.5437 16.3111 27.5905 15.6127 28.1865C15.3466 28.4142 15.1271 28.6487 15.1271 28.7089C15.1271 28.7625 15.433 29.0974 15.8056 29.4456C16.4508 30.055 16.4774 30.0952 16.4242 30.2827L16.3643 30.4836L16.3377 30.276C16.3244 30.1153 16.1648 29.9345 15.626 29.4188C15.2401 29.0638 14.9275 28.729 14.9275 28.6754C14.9275 28.6286 15.167 28.3808 15.453 28.1263C16.1847 27.4968 16.1914 27.4566 15.892 26.6864C15.3865 25.3939 14.3022 23.3981 13.9031 23.0231C13.7767 22.9025 13.7301 22.7887 13.7301 22.6079C13.7301 22.3333 13.79 22.2663 14.1292 22.1525C14.4752 22.0386 14.8144 21.7774 15.0472 21.4492C15.2335 21.1881 15.3133 21.1412 15.8255 20.9805C16.1382 20.88 16.3909 20.7728 16.3909 20.7461C16.3909 20.7126 16.2712 20.5385 16.1249 20.3643C15.8388 20.0161 15.7856 19.7683 15.9785 19.7081C16.0384 19.688 16.2712 19.6544 16.4907 19.6276C16.7103 19.6075 16.9098 19.5741 16.9364 19.554C16.963 19.5406 16.8965 19.2861 16.7901 18.9915C16.6769 18.6968 16.5905 18.4155 16.5905 18.3753C16.5905 18.3284 16.7635 18.2414 16.9763 18.1677C17.4486 18.0136 18.2535 17.6118 18.2535 17.5315C18.2535 17.498 18.0074 17.3372 17.7147 17.1765C17.1359 16.8684 16.5506 16.3997 16.637 16.3193C16.6636 16.2925 16.9031 16.1988 17.1559 16.1184C17.7945 15.9041 18.473 15.5893 19.0052 15.2477C19.2513 15.0937 19.4509 14.9531 19.4376 14.9464C19.4109 14.9263 17.6083 14.1494 17.4353 14.0892C17.3555 14.0557 17.3355 14.0155 17.3688 13.9553C17.3954 13.9016 17.8345 13.473 18.34 13.0042C18.8389 12.5287 19.2513 12.1202 19.2513 12.0935C19.2513 12.0399 18.8389 11.9662 17.6216 11.7921C17.1826 11.7251 16.7967 11.6581 16.7701 11.6313C16.7369 11.6046 17.0428 11.0152 17.4486 10.3254C18.1072 9.19358 18.2335 8.9525 18.167 8.9525C18.1537 8.9525 17.6082 9.14675 16.9564 9.38783C16.0051 9.73608 15.7457 9.80307 15.6792 9.73608C15.5328 9.58873 15.3931 8.48371 15.3931 7.49251V6.53487L14.8543 6.82284C14.2224 7.16442 13.3776 7.82739 12.9851 8.28953C12.8387 8.47034 12.6858 8.61769 12.6592 8.61769C12.6258 8.61769 12.3731 8.30962 12.087 7.92784C11.5948 7.27152 10.7633 6.34065 10.6702 6.34065C10.6436 6.34065 10.5903 6.63532 10.5504 6.99026C10.4307 7.99483 10.0781 9.22039 9.90514 9.22039C9.85859 9.22039 9.53932 9.08648 9.20004 8.92569C8.65459 8.67124 7.82306 8.41672 7.51709 8.41672C7.43729 8.41672 7.47719 8.53726 7.67011 8.93241C7.96278 9.52846 8.22885 10.4594 8.1956 10.7808L8.17565 10.9951L7.57694 11.042C5.83412 11.176 5.01592 11.2563 5.01592 11.2898C5.01592 11.3166 5.30861 11.6313 5.66782 11.9997C6.33967 12.6828 6.83193 13.4128 6.79866 13.6673C6.78536 13.761 6.44611 14.0423 5.74764 14.5312C5.18221 14.9263 4.70992 15.2813 4.69662 15.3147C4.68331 15.3483 4.75648 15.3951 4.86292 15.4219C5.57468 15.5759 5.88068 15.6764 6.13346 15.8237C6.47936 16.0313 6.83858 16.3394 7.0182 16.5939L7.1512 16.7814L6.40619 17.5248C5.7809 18.1543 5.67447 18.2815 5.75429 18.3552C5.80751 18.4021 6.20663 18.5561 6.64567 18.6901C7.0847 18.824 7.47054 18.9647 7.50379 18.9981C7.53704 19.0317 7.48384 19.3732 7.35742 19.842C7.24437 20.2773 7.17115 20.659 7.1911 20.6925C7.22442 20.7527 8.32195 20.6992 8.50157 20.6322C8.66789 20.5719 8.73439 20.7327 8.78101 21.2618C8.80761 21.5699 8.84752 21.831 8.87411 21.8444C8.92731 21.8779 9.67233 21.5564 9.67233 21.5029C9.67233 21.4828 9.58587 21.3421 9.47948 21.1881C9.03378 20.5318 8.72774 19.7081 8.48827 18.4959C8.32867 17.7257 8.25545 16.989 8.33532 16.989C8.36192 16.989 8.40847 17.2033 8.43507 17.4645C8.56814 18.9579 9.2533 20.8533 9.87854 21.4828C10.0382 21.6435 10.3842 21.8712 10.7167 22.0252L11.2755 22.2864L11.2555 22.5342L11.2356 22.782L9.75885 23.2776L8.28205 23.7732L8.14905 24.1817C8.07583 24.4094 7.76986 25.4474 7.47719 26.4989C6.9317 28.4075 6.76541 28.8898 6.84523 28.3205C6.87849 28.0392 6.86518 28.0124 6.52593 27.6374C4.40393 25.3336 3.09347 22.6346 2.58126 19.5004C2.38835 18.3552 2.40831 15.9041 2.61452 14.7789C3.19325 11.618 4.47045 9.03958 6.55919 6.83624C9.96507 3.2533 14.7346 1.60581 19.6571 2.3224ZM10.6569 23.9674C10.1779 24.9653 9.32646 27.3561 9.3996 27.4834C9.43285 27.5437 9.71894 27.8182 10.0382 28.0995C10.3641 28.3808 10.6369 28.642 10.6502 28.6889C10.6702 28.7357 10.5704 28.883 10.4307 29.0237C10.2843 29.1777 10.2311 29.2112 10.2976 29.1107C10.5571 28.7022 10.577 28.7558 9.90514 28.133C9.4528 27.711 9.27326 27.5035 9.27326 27.3896C9.27326 27.0413 10.5903 23.6861 10.73 23.6861C10.7633 23.6861 10.73 23.8134 10.6569 23.9674Z" fill="#3C3E44"/>
</svg>
