<svg width="160" height="160" viewBox="0 0 160 160" fill="none" xmlns="http://www.w3.org/2000/svg">
<g clip-path="url(#clip0_112_27)">
<path d="M39.0633 4.32761C38.2645 11.0197 35.9125 19.1842 34.7587 19.1842C34.448 19.1842 32.3178 18.2919 30.0545 17.2211C26.4155 15.5258 20.8682 13.8305 18.8268 13.8305C18.2943 13.8305 18.5606 14.6335 19.8475 17.2658C21.8002 21.2365 23.5753 27.4378 23.3534 29.5793L23.2203 31.007L19.2262 31.3193C7.59911 32.2116 2.14057 32.747 2.14057 32.97C2.14057 33.1485 4.09322 35.2454 6.48965 37.6992C10.9719 42.2498 14.2559 47.1128 14.0339 48.8081C13.9452 49.4328 11.6819 51.3064 7.02218 54.5634C3.25003 57.1958 0.0991653 59.56 0.0104088 59.7834C-0.0783479 60.0064 0.409814 60.3187 1.11987 60.497C5.86836 61.5234 7.90976 62.1923 9.59615 63.174C11.9038 64.557 14.3002 66.6094 15.4985 68.3047L16.386 69.5536L11.4156 74.506C7.24406 78.6996 6.53401 79.5477 7.06658 80.0383C7.42159 80.3506 10.0843 81.3766 13.0133 82.2689C15.9422 83.1613 18.5162 84.0983 18.7381 84.3213C18.96 84.5443 18.6049 86.8196 17.7617 89.9426C17.0073 92.8426 16.5192 95.3855 16.6523 95.6085C16.8742 96.0102 24.1966 95.6532 25.3948 95.2072C26.5043 94.8055 26.9481 95.8762 27.2587 99.4009C27.4362 101.453 27.7025 103.193 27.88 103.282C28.235 103.506 33.2054 101.364 33.2054 101.007C33.2054 100.873 32.6285 99.9362 31.9184 98.9102C29.877 95.9209 28.5013 92.8426 27.2143 88.5596C26.593 86.3289 25.6611 83.3396 25.2173 81.8672C24.7291 80.3953 24.241 78.3877 24.1522 77.406C23.5309 72.677 23.4422 70.937 23.886 70.937C24.1079 70.937 24.3297 71.6953 24.3297 72.5877C24.3741 74.5953 25.3504 79.9489 26.0161 81.8672C26.2824 82.5813 27.1256 85.2136 27.88 87.6672C29.6995 93.4226 32.3178 98.5979 34.5811 100.873C35.6462 101.944 37.9539 103.461 40.1728 104.487L43.9005 106.227L43.6343 109.529L33.7379 112.83L23.8416 116.176L22.5546 120.414C21.8445 122.779 19.8475 129.783 18.0724 136.029C16.2973 142.231 14.6109 147.584 14.3446 147.852C14.0784 148.12 13.2795 150.529 12.6138 153.25C11.9482 155.927 11.3269 158.515 11.1937 158.917C10.9719 159.675 12.747 159.72 44.2557 159.72C75.8087 159.72 77.5839 159.675 77.5839 158.917C77.5839 158.515 75.498 156.195 72.924 153.786C70.3501 151.377 68.2641 149.146 68.2641 148.789C68.2641 148.477 69.862 146.826 71.7702 145.131C76.6519 140.937 76.6963 140.669 74.6993 135.538C71.3266 126.928 64.0927 113.633 61.4298 111.134C60.5867 110.331 60.276 109.573 60.276 108.369C60.276 106.539 60.6756 106.093 62.9388 105.334C65.2466 104.576 67.5098 102.836 69.0633 100.65C70.3056 98.9102 70.8381 98.5979 74.2552 97.5272C76.3412 96.8579 78.0275 96.1438 78.0275 95.9655C78.0275 95.7426 77.2288 94.5826 76.2523 93.4226C74.3441 91.1026 73.989 89.4519 75.2762 89.0502C75.6753 88.9166 77.2288 88.6932 78.6933 88.5149C80.1575 88.3813 81.4891 88.1579 81.6665 88.0243C82.066 87.8455 79.8028 81.5106 79.2703 81.2872C79.0925 81.1983 78.9151 80.7966 78.9151 80.3506C78.9151 79.8153 79.5365 79.4136 81.134 79.0119C83.8853 78.2983 90.4533 75.1306 90.4533 74.5506C90.4533 74.283 89.6102 73.6583 88.5896 73.123C82.9092 70.223 78.2938 66.877 79.2258 66.3417C79.4032 66.2523 81.0451 65.717 82.8203 65.1817C84.5956 64.6464 87.4802 63.5311 89.255 62.7277C92.3175 61.3447 98.6193 57.597 98.3526 57.3294C98.1752 57.1958 86.1486 52.0204 84.9947 51.6187C84.4622 51.3957 84.3293 51.1281 84.5511 50.7264C84.7285 50.3698 87.6576 47.5145 91.0303 44.3915C94.359 41.2237 97.1103 38.5022 97.1103 38.3237C97.1103 37.9669 94.3585 37.4761 86.2375 36.3161C83.3084 35.87 80.7344 35.4238 80.557 35.2454C80.3353 35.0669 82.3767 31.1409 85.0836 26.5456C89.4773 19.0057 90.3204 17.3996 89.8764 17.3996C89.7879 17.3996 86.1486 18.6934 81.7998 20.2995C75.4536 22.6195 73.7228 23.0657 73.2792 22.6195C72.3027 21.638 71.3706 14.2766 71.3706 7.67366V1.29382L67.7761 3.21224C63.5602 5.48757 57.9242 9.90438 55.3058 12.9828C54.3293 14.1874 53.3088 15.1689 53.1314 15.1689C52.9092 15.1689 51.2229 13.1166 49.3147 10.5736C46.0309 6.2014 40.4834 0 39.8621 0C39.6846 0 39.3296 1.96303 39.0633 4.32761ZM40.306 116.131C38.6639 117.425 30.2764 139.688 30.9421 140.848C31.164 141.249 33.0723 143.078 35.2024 144.952C37.377 146.826 39.1965 148.566 39.2853 148.834C39.374 149.101 38.8414 150.083 38.087 151.02C37.377 151.957 36.7557 152.447 36.7557 152.135C36.7557 151.867 37.1551 151.064 37.6876 150.44L38.6196 149.235L34.3592 145.22C31.3859 142.409 30.0989 140.892 30.0989 140.178C30.0989 138.751 35.1581 125.099 38.2645 118.094C39.019 116.399 39.6403 115.551 40.1728 115.551C40.8828 115.596 40.8828 115.64 40.306 116.131Z" fill="#3C3E44"/>
<path d="M114.596 62.6834C102.126 64.9587 95.247 69.9106 86.3272 83.1613C84.3746 86.0166 84.2413 86.3736 84.2413 89.1396C84.2413 91.2808 83.7977 93.3779 82.6438 96.9915C80.6912 103.104 80.7797 104.531 83.5755 109.305C84.6849 111.179 85.5725 112.964 85.5725 113.187C85.5725 113.454 84.9956 114.302 84.2413 115.105C81.8891 117.648 81.9335 121.574 84.3746 124.206C85.7947 125.679 89.123 127.062 90.0106 126.482C90.2324 126.348 89.9217 125.322 89.3448 124.162C88.7234 123.046 88.2353 121.797 88.2798 121.396C88.2798 120.95 88.5016 121.083 88.7678 121.797C89.5221 123.448 93.0282 128.891 94.7589 131.032C98.1761 135.315 105.543 139.643 112.422 141.472C114.508 142.008 118.191 142.498 121.297 142.632C124.226 142.766 126.223 143.034 125.735 143.212C123.072 144.149 110.824 142.409 105.188 140.268L102.259 139.152L101.504 140.178C98.7086 143.881 95.5132 152.314 94.7145 158.024L94.4927 159.72H122.007C148.013 159.72 149.522 159.675 149.3 158.917C149.167 158.515 148.457 155.838 147.747 152.983C146.193 146.826 144.951 143.748 142.954 141.115C142.155 140.045 141.49 138.929 141.49 138.617C141.534 138.349 142.643 137.278 144.019 136.297C146.504 134.512 149.921 130.899 151.785 128.043C152.406 127.106 153.383 126.348 154.27 126.08C155.025 125.857 156.445 124.92 157.421 124.028C160.483 121.083 160.794 117.068 158.087 114.703C157.155 113.9 157.022 113.499 157.288 112.071C157.465 111.179 157.732 110.331 157.909 110.197C158.087 110.064 158.486 108.77 158.797 107.297C159.241 105.156 159.241 103.506 158.797 98.9102C158.486 95.7872 158.042 93.2442 157.821 93.2442C157.599 93.2442 157.465 91.9949 157.51 90.4332C157.599 87.9796 157.377 87.2213 155.779 84.0983C153.649 79.8596 150.498 75.22 147.303 71.74C145.35 69.5983 144.063 68.7506 139.048 66.2523C135.498 64.5123 131.859 63.04 130.084 62.6834C126.401 61.88 118.856 61.88 114.596 62.6834Z" fill="#3C3E44"/>
<path d="M62.4957 111.357C62.4957 111.491 63.3388 112.74 64.4038 114.123C65.4688 115.507 66.9333 117.693 67.7321 118.897C69.818 122.243 74.6552 132.683 76.0753 136.832C77.6284 141.249 77.4955 141.561 72.8356 145.532C71.0603 147.049 69.5962 148.655 69.5962 149.012C69.5962 149.414 71.5928 151.555 74.0339 153.875C76.6967 156.329 78.4715 158.337 78.4715 158.872C78.4715 159.675 78.8267 159.72 84.6844 159.72C89.3443 159.72 90.8978 159.586 90.8978 159.14C90.8978 157.266 80.025 117.96 79.004 116.087C78.8267 115.73 75.9865 114.793 72.7026 113.945C69.4184 113.142 66.0013 112.16 65.0692 111.759C63.2499 111.045 62.4957 110.911 62.4957 111.357Z" fill="#3C3E44"/>
</g>
<defs>
<clipPath id="clip0_112_27">
<rect width="160" height="160" fill="white"/>
</clipPath>
</defs>
</svg>
